<svg xmlns="http://www.w3.org/2000/svg" version="1.1" xmlns:xlink="http://www.w3.org/1999/xlink" xmlns:svgjs="http://svgjs.dev/svgjs" width="1440" height="800" preserveAspectRatio="none" viewBox="0 0 1440 800"><g mask="url(&quot;#SvgjsMask1144&quot;)" fill="none"><rect width="1440" height="800" x="0" y="0" fill="#0e2a47"></rect><g mask="url(&quot;#SvgjsMask1145&quot;)"><path d="M42 406L42 658L14 686L14 798" stroke-width="4.67" stroke="#3a7cc3"></path><path d="M35 406 a7 7 0 1 0 14 0 a7 7 0 1 0 -14 0zM7 798 a7 7 0 1 0 14 0 a7 7 0 1 0 -14 0z" fill="#3a7cc3"></path><path d="M98 546L70 518L70 238L154 154L154 14" stroke-width="4.67" stroke="#3a7cc3"></path><path d="M91 546 a7 7 0 1 0 14 0 a7 7 0 1 0 -14 0zM147 14 a7 7 0 1 0 14 0 a7 7 0 1 0 -14 0z" fill="#3a7cc3"></path><path d="M714 98L630 14L546 14L182 378" stroke-width="4.67" stroke="#3a7cc3"></path><path d="M707 98 a7 7 0 1 0 14 0 a7 7 0 1 0 -14 0zM175 378 a7 7 0 1 0 14 0 a7 7 0 1 0 -14 0z" fill="#3a7cc3"></path><path d="M1022 462L1022 546L1274 798L1330 798L1442 686L1442 658" stroke-width="4.67" stroke="#3a7cc3"></path><path d="M1015 462 a7 7 0 1 0 14 0 a7 7 0 1 0 -14 0zM1435 658 a7 7 0 1 0 14 0 a7 7 0 1 0 -14 0z" fill="#3a7cc3"></path><path d="M98 126L98 182L14 266L14 658" stroke-width="4.67" stroke="#3a7cc3"></path><path d="M91 126 a7 7 0 1 0 14 0 a7 7 0 1 0 -14 0zM7 658 a7 7 0 1 0 14 0 a7 7 0 1 0 -14 0z" fill="#3a7cc3"></path><path d="M602 434L322 434L126 630L70 630" stroke-width="4.67" stroke="#3a7cc3"></path><path d="M595 434 a7 7 0 1 0 14 0 a7 7 0 1 0 -14 0zM63 630 a7 7 0 1 0 14 0 a7 7 0 1 0 -14 0z" fill="#3a7cc3"></path><path d="M1302 322L1190 210L910 210L826 126L826 70" stroke-width="4.67" stroke="#3a7cc3"></path><path d="M1295 322 a7 7 0 1 0 14 0 a7 7 0 1 0 -14 0zM819 70 a7 7 0 1 0 14 0 a7 7 0 1 0 -14 0z" fill="#3a7cc3"></path><path d="M434 742L434 798" stroke-width="4.67" stroke="#3a7cc3"></path><path d="M427 742 a7 7 0 1 0 14 0 a7 7 0 1 0 -14 0zM427 798 a7 7 0 1 0 14 0 a7 7 0 1 0 -14 0z" fill="#3a7cc3"></path><path d="M1414 350L1190 350L1078 238L910 238L882 210" stroke-width="4.67" stroke="#3a7cc3"></path><path d="M1407 350 a7 7 0 1 0 14 0 a7 7 0 1 0 -14 0zM875 210 a7 7 0 1 0 14 0 a7 7 0 1 0 -14 0z" fill="#3a7cc3"></path><path d="M238 434L98 434" stroke-width="4.67" stroke="#3a7cc3"></path><path d="M231 434 a7 7 0 1 0 14 0 a7 7 0 1 0 -14 0zM91 434 a7 7 0 1 0 14 0 a7 7 0 1 0 -14 0z" fill="#3a7cc3"></path><path d="M1050 378L938 266L854 266L630 42L546 42L518 70" stroke-width="4.67" stroke="#3a7cc3"></path><path d="M1043 378 a7 7 0 1 0 14 0 a7 7 0 1 0 -14 0zM511 70 a7 7 0 1 0 14 0 a7 7 0 1 0 -14 0z" fill="#3a7cc3"></path><path d="M1274 14L742 14" stroke-width="4.67" stroke="#3a7cc3"></path><path d="M1267 14 a7 7 0 1 0 14 0 a7 7 0 1 0 -14 0zM735 14 a7 7 0 1 0 14 0 a7 7 0 1 0 -14 0z" fill="#3a7cc3"></path><path d="M1050 266L1050 294L1022 322" stroke-width="4.67" stroke="#3a7cc3"></path><path d="M1043 266 a7 7 0 1 0 14 0 a7 7 0 1 0 -14 0zM1015 322 a7 7 0 1 0 14 0 a7 7 0 1 0 -14 0z" fill="#3a7cc3"></path><path d="M378 98L378 154L238 294L98 294" stroke-width="4.67" stroke="#3a7cc3"></path><path d="M371 98 a7 7 0 1 0 14 0 a7 7 0 1 0 -14 0zM91 294 a7 7 0 1 0 14 0 a7 7 0 1 0 -14 0z" fill="#3a7cc3"></path><path d="M1246 658L1162 658L1134 630L1134 546L1246 434L1246 406L1274 378L1442 378" stroke-width="4.67" stroke="#3a7cc3"></path><path d="M1239 658 a7 7 0 1 0 14 0 a7 7 0 1 0 -14 0zM1435 378 a7 7 0 1 0 14 0 a7 7 0 1 0 -14 0z" fill="#3a7cc3"></path><path d="M126 70L126 14" stroke-width="4.67" stroke="#3a7cc3"></path><path d="M119 70 a7 7 0 1 0 14 0 a7 7 0 1 0 -14 0zM119 14 a7 7 0 1 0 14 0 a7 7 0 1 0 -14 0z" fill="#3a7cc3"></path><path d="M294 98L378 14L518 14" stroke-width="4.67" stroke="#3a7cc3"></path><path d="M287 98 a7 7 0 1 0 14 0 a7 7 0 1 0 -14 0zM511 14 a7 7 0 1 0 14 0 a7 7 0 1 0 -14 0z" fill="#3a7cc3"></path><path d="M1330 266L1274 266L1162 154L882 154L854 126L854 70" stroke-width="4.67" stroke="#3a7cc3"></path><path d="M1323 266 a7 7 0 1 0 14 0 a7 7 0 1 0 -14 0zM847 70 a7 7 0 1 0 14 0 a7 7 0 1 0 -14 0z" fill="#3a7cc3"></path><path d="M574 294L462 406L98 406" stroke-width="4.67" stroke="#3a7cc3"></path><path d="M567 294 a7 7 0 1 0 14 0 a7 7 0 1 0 -14 0zM91 406 a7 7 0 1 0 14 0 a7 7 0 1 0 -14 0z" fill="#3a7cc3"></path><path d="M1078 266L1078 574L1106 602" stroke-width="4.67" stroke="#3a7cc3"></path><path d="M1071 266 a7 7 0 1 0 14 0 a7 7 0 1 0 -14 0zM1099 602 a7 7 0 1 0 14 0 a7 7 0 1 0 -14 0z" fill="#3a7cc3"></path><path d="M1330 154L1190 154L1078 42L798 42" stroke-width="4.67" stroke="#3a7cc3"></path><path d="M1323 154 a7 7 0 1 0 14 0 a7 7 0 1 0 -14 0zM791 42 a7 7 0 1 0 14 0 a7 7 0 1 0 -14 0z" fill="#3a7cc3"></path><path d="M826 350L826 406L910 490L966 490L1022 434L1050 434" stroke-width="4.67" stroke="#3a7cc3"></path><path d="M819 350 a7 7 0 1 0 14 0 a7 7 0 1 0 -14 0zM1043 434 a7 7 0 1 0 14 0 a7 7 0 1 0 -14 0z" fill="#3a7cc3"></path><path d="M1386 546L1442 602L1442 630L1302 770L1274 770L1190 686" stroke-width="4.67" stroke="#3a7cc3"></path><path d="M1379 546 a7 7 0 1 0 14 0 a7 7 0 1 0 -14 0zM1183 686 a7 7 0 1 0 14 0 a7 7 0 1 0 -14 0z" fill="#3a7cc3"></path><path d="M1386 14L1330 70L1134 70L1106 42" stroke-width="4.67" stroke="#3a7cc3"></path><path d="M1379 14 a7 7 0 1 0 14 0 a7 7 0 1 0 -14 0zM1099 42 a7 7 0 1 0 14 0 a7 7 0 1 0 -14 0z" fill="#3a7cc3"></path><path d="M518 406L546 378L546 350L714 182L714 154L630 70L546 70L462 154L462 182" stroke-width="4.67" stroke="#3a7cc3"></path><path d="M511 406 a7 7 0 1 0 14 0 a7 7 0 1 0 -14 0zM455 182 a7 7 0 1 0 14 0 a7 7 0 1 0 -14 0z" fill="#3a7cc3"></path><path d="M966 322L1050 406" stroke-width="4.67" stroke="#3a7cc3"></path><path d="M959 322 a7 7 0 1 0 14 0 a7 7 0 1 0 -14 0zM1043 406 a7 7 0 1 0 14 0 a7 7 0 1 0 -14 0z" fill="#3a7cc3"></path><path d="M1106 490L1106 294" stroke-width="4.67" stroke="#3a7cc3"></path><path d="M1099 490 a7 7 0 1 0 14 0 a7 7 0 1 0 -14 0zM1099 294 a7 7 0 1 0 14 0 a7 7 0 1 0 -14 0z" fill="#3a7cc3"></path><path d="M1358 154L1358 70L1414 14L1442 14" stroke-width="4.67" stroke="#3a7cc3"></path><path d="M1351 154 a7 7 0 1 0 14 0 a7 7 0 1 0 -14 0zM1435 14 a7 7 0 1 0 14 0 a7 7 0 1 0 -14 0z" fill="#3a7cc3"></path><path d="M266 238L266 14" stroke-width="4.67" stroke="#3a7cc3"></path><path d="M259 238 a7 7 0 1 0 14 0 a7 7 0 1 0 -14 0zM259 14 a7 7 0 1 0 14 0 a7 7 0 1 0 -14 0z" fill="#3a7cc3"></path><path d="M686 182L602 98L574 98L434 238L350 238L210 378" stroke-width="4.67" stroke="#3a7cc3"></path><path d="M679 182 a7 7 0 1 0 14 0 a7 7 0 1 0 -14 0zM203 378 a7 7 0 1 0 14 0 a7 7 0 1 0 -14 0z" fill="#3a7cc3"></path><path d="M658 490L854 294L938 294" stroke-width="4.67" stroke="#3a7cc3"></path><path d="M651 490 a7 7 0 1 0 14 0 a7 7 0 1 0 -14 0zM931 294 a7 7 0 1 0 14 0 a7 7 0 1 0 -14 0z" fill="#3a7cc3"></path><path d="M966 714L434 714" stroke-width="4.67" stroke="#3a7cc3"></path><path d="M959 714 a7 7 0 1 0 14 0 a7 7 0 1 0 -14 0zM427 714 a7 7 0 1 0 14 0 a7 7 0 1 0 -14 0z" fill="#3a7cc3"></path><path d="M1050 126L882 126" stroke-width="4.67" stroke="#3a7cc3"></path><path d="M1043 126 a7 7 0 1 0 14 0 a7 7 0 1 0 -14 0zM875 126 a7 7 0 1 0 14 0 a7 7 0 1 0 -14 0z" fill="#3a7cc3"></path><path d="M1274 546L1190 546L1162 574L1162 630" stroke-width="4.67" stroke="#3a7cc3"></path><path d="M1267 546 a7 7 0 1 0 14 0 a7 7 0 1 0 -14 0zM1155 630 a7 7 0 1 0 14 0 a7 7 0 1 0 -14 0z" fill="#3a7cc3"></path><path d="M602 546L630 518L994 518" stroke-width="4.67" stroke="#3a7cc3"></path><path d="M595 546 a7 7 0 1 0 14 0 a7 7 0 1 0 -14 0zM987 518 a7 7 0 1 0 14 0 a7 7 0 1 0 -14 0z" fill="#3a7cc3"></path><path d="M1274 490L1274 406" stroke-width="4.67" stroke="#3a7cc3"></path><path d="M1267 490 a7 7 0 1 0 14 0 a7 7 0 1 0 -14 0zM1267 406 a7 7 0 1 0 14 0 a7 7 0 1 0 -14 0z" fill="#3a7cc3"></path><path d="M1386 322L1330 322L1302 294" stroke-width="4.67" stroke="#3a7cc3"></path><path d="M1379 322 a7 7 0 1 0 14 0 a7 7 0 1 0 -14 0zM1295 294 a7 7 0 1 0 14 0 a7 7 0 1 0 -14 0z" fill="#3a7cc3"></path><path d="M238 714L350 714L462 602L462 462" stroke-width="4.67" stroke="#3a7cc3"></path><path d="M231 714 a7 7 0 1 0 14 0 a7 7 0 1 0 -14 0zM455 462 a7 7 0 1 0 14 0 a7 7 0 1 0 -14 0z" fill="#3a7cc3"></path><path d="M266 630L98 798L42 798" stroke-width="4.67" stroke="#3a7cc3"></path><path d="M259 630 a7 7 0 1 0 14 0 a7 7 0 1 0 -14 0zM35 798 a7 7 0 1 0 14 0 a7 7 0 1 0 -14 0z" fill="#3a7cc3"></path><path d="M1442 210L1246 210L1218 182" stroke-width="4.67" stroke="#3a7cc3"></path><path d="M1435 210 a7 7 0 1 0 14 0 a7 7 0 1 0 -14 0zM1211 182 a7 7 0 1 0 14 0 a7 7 0 1 0 -14 0z" fill="#3a7cc3"></path><path d="M994 378L938 322L854 322" stroke-width="4.67" stroke="#3a7cc3"></path><path d="M987 378 a7 7 0 1 0 14 0 a7 7 0 1 0 -14 0zM847 322 a7 7 0 1 0 14 0 a7 7 0 1 0 -14 0z" fill="#3a7cc3"></path><path d="M210 602L434 602" stroke-width="4.67" stroke="#3a7cc3"></path><path d="M203 602 a7 7 0 1 0 14 0 a7 7 0 1 0 -14 0zM427 602 a7 7 0 1 0 14 0 a7 7 0 1 0 -14 0z" fill="#3a7cc3"></path><path d="M630 490L630 294L742 182" stroke-width="4.67" stroke="#3a7cc3"></path><path d="M623 490 a7 7 0 1 0 14 0 a7 7 0 1 0 -14 0zM735 182 a7 7 0 1 0 14 0 a7 7 0 1 0 -14 0z" fill="#3a7cc3"></path><path d="M770 630L826 686L1134 686L1162 714L1162 798" stroke-width="4.67" stroke="#3a7cc3"></path><path d="M763 630 a7 7 0 1 0 14 0 a7 7 0 1 0 -14 0zM1155 798 a7 7 0 1 0 14 0 a7 7 0 1 0 -14 0z" fill="#3a7cc3"></path><path d="M798 126L798 70L770 42L686 42L658 14" stroke-width="4.67" stroke="#3a7cc3"></path><path d="M791 126 a7 7 0 1 0 14 0 a7 7 0 1 0 -14 0zM651 14 a7 7 0 1 0 14 0 a7 7 0 1 0 -14 0z" fill="#3a7cc3"></path><path d="M1330 14L1302 14L1274 42L1134 42" stroke-width="4.67" stroke="#3a7cc3"></path><path d="M1323 14 a7 7 0 1 0 14 0 a7 7 0 1 0 -14 0zM1127 42 a7 7 0 1 0 14 0 a7 7 0 1 0 -14 0z" fill="#3a7cc3"></path><path d="M210 574L434 574" stroke-width="4.67" stroke="#3a7cc3"></path><path d="M203 574 a7 7 0 1 0 14 0 a7 7 0 1 0 -14 0zM427 574 a7 7 0 1 0 14 0 a7 7 0 1 0 -14 0z" fill="#3a7cc3"></path><path d="M1190 518L1246 462" stroke-width="4.67" stroke="#3a7cc3"></path><path d="M1183 518 a7 7 0 1 0 14 0 a7 7 0 1 0 -14 0zM1239 462 a7 7 0 1 0 14 0 a7 7 0 1 0 -14 0z" fill="#3a7cc3"></path><path d="M238 266L182 210L126 210L98 238L98 266" stroke-width="4.67" stroke="#3a7cc3"></path><path d="M231 266 a7 7 0 1 0 14 0 a7 7 0 1 0 -14 0zM91 266 a7 7 0 1 0 14 0 a7 7 0 1 0 -14 0z" fill="#3a7cc3"></path><path d="M546 546L518 574L518 686" stroke-width="4.67" stroke="#3a7cc3"></path><path d="M539 546 a7 7 0 1 0 14 0 a7 7 0 1 0 -14 0zM511 686 a7 7 0 1 0 14 0 a7 7 0 1 0 -14 0z" fill="#3a7cc3"></path><path d="M518 798L462 742" stroke-width="4.67" stroke="#3a7cc3"></path><path d="M511 798 a7 7 0 1 0 14 0 a7 7 0 1 0 -14 0zM455 742 a7 7 0 1 0 14 0 a7 7 0 1 0 -14 0z" fill="#3a7cc3"></path><path d="M1246 378L1134 378" stroke-width="4.67" stroke="#3a7cc3"></path><path d="M1239 378 a7 7 0 1 0 14 0 a7 7 0 1 0 -14 0zM1127 378 a7 7 0 1 0 14 0 a7 7 0 1 0 -14 0z" fill="#3a7cc3"></path><path d="M1358 182L1414 126L1414 70" stroke-width="4.67" stroke="#3a7cc3"></path><path d="M1351 182 a7 7 0 1 0 14 0 a7 7 0 1 0 -14 0zM1407 70 a7 7 0 1 0 14 0 a7 7 0 1 0 -14 0z" fill="#3a7cc3"></path><path d="M770 70L770 154L854 238L882 238" stroke-width="4.67" stroke="#3a7cc3"></path><path d="M763 70 a7 7 0 1 0 14 0 a7 7 0 1 0 -14 0zM875 238 a7 7 0 1 0 14 0 a7 7 0 1 0 -14 0z" fill="#3a7cc3"></path><path d="M98 658L126 686L126 742L98 770L42 770" stroke-width="4.67" stroke="#3a7cc3"></path><path d="M91 658 a7 7 0 1 0 14 0 a7 7 0 1 0 -14 0zM35 770 a7 7 0 1 0 14 0 a7 7 0 1 0 -14 0z" fill="#3a7cc3"></path><path d="M602 770L518 770L490 742" stroke-width="4.67" stroke="#3a7cc3"></path><path d="M595 770 a7 7 0 1 0 14 0 a7 7 0 1 0 -14 0zM483 742 a7 7 0 1 0 14 0 a7 7 0 1 0 -14 0z" fill="#3a7cc3"></path><path d="M490 630L322 798L266 798L210 742L182 742L126 798" stroke-width="4.67" stroke="#3a7cc3"></path><path d="M483 630 a7 7 0 1 0 14 0 a7 7 0 1 0 -14 0zM119 798 a7 7 0 1 0 14 0 a7 7 0 1 0 -14 0z" fill="#3a7cc3"></path><path d="M1134 434L1134 518L1106 546L1106 574" stroke-width="4.67" stroke="#3a7cc3"></path><path d="M1127 434 a7 7 0 1 0 14 0 a7 7 0 1 0 -14 0zM1099 574 a7 7 0 1 0 14 0 a7 7 0 1 0 -14 0z" fill="#3a7cc3"></path><path d="M994 546L910 630L910 658" stroke-width="4.67" stroke="#3a7cc3"></path><path d="M987 546 a7 7 0 1 0 14 0 a7 7 0 1 0 -14 0zM903 658 a7 7 0 1 0 14 0 a7 7 0 1 0 -14 0z" fill="#3a7cc3"></path><path d="M14 238L70 182L70 98L14 42L14 14" stroke-width="4.67" stroke="#3a7cc3"></path><path d="M7 238 a7 7 0 1 0 14 0 a7 7 0 1 0 -14 0zM7 14 a7 7 0 1 0 14 0 a7 7 0 1 0 -14 0z" fill="#3a7cc3"></path><path d="M826 658L938 546L966 546" stroke-width="4.67" stroke="#3a7cc3"></path><path d="M819 658 a7 7 0 1 0 14 0 a7 7 0 1 0 -14 0zM959 546 a7 7 0 1 0 14 0 a7 7 0 1 0 -14 0z" fill="#3a7cc3"></path><path d="M350 70L350 154L294 210" stroke-width="4.67" stroke="#3a7cc3"></path><path d="M343 70 a7 7 0 1 0 14 0 a7 7 0 1 0 -14 0zM287 210 a7 7 0 1 0 14 0 a7 7 0 1 0 -14 0z" fill="#3a7cc3"></path><path d="M658 798L714 742L1134 742" stroke-width="4.67" stroke="#3a7cc3"></path><path d="M651 798 a7 7 0 1 0 14 0 a7 7 0 1 0 -14 0zM1127 742 a7 7 0 1 0 14 0 a7 7 0 1 0 -14 0z" fill="#3a7cc3"></path><path d="M406 350L350 294L322 294L238 378" stroke-width="4.67" stroke="#3a7cc3"></path><path d="M399 350 a7 7 0 1 0 14 0 a7 7 0 1 0 -14 0zM231 378 a7 7 0 1 0 14 0 a7 7 0 1 0 -14 0z" fill="#3a7cc3"></path><path d="M574 574L546 602L546 686" stroke-width="4.67" stroke="#3a7cc3"></path><path d="M567 574 a7 7 0 1 0 14 0 a7 7 0 1 0 -14 0zM539 686 a7 7 0 1 0 14 0 a7 7 0 1 0 -14 0z" fill="#3a7cc3"></path><path d="M1106 182L1162 182" stroke-width="4.67" stroke="#3a7cc3"></path><path d="M1099 182 a7 7 0 1 0 14 0 a7 7 0 1 0 -14 0zM1155 182 a7 7 0 1 0 14 0 a7 7 0 1 0 -14 0z" fill="#3a7cc3"></path><path d="M1274 742L1302 742L1414 630L1414 602L1302 490L1302 406" stroke-width="4.67" stroke="#3a7cc3"></path><path d="M1267 742 a7 7 0 1 0 14 0 a7 7 0 1 0 -14 0zM1295 406 a7 7 0 1 0 14 0 a7 7 0 1 0 -14 0z" fill="#3a7cc3"></path><path d="M882 378L966 378L994 406L1022 406" stroke-width="4.67" stroke="#3a7cc3"></path><path d="M875 378 a7 7 0 1 0 14 0 a7 7 0 1 0 -14 0zM1015 406 a7 7 0 1 0 14 0 a7 7 0 1 0 -14 0z" fill="#3a7cc3"></path><path d="M1358 658L1274 658L1246 686L1218 686" stroke-width="4.67" stroke="#3a7cc3"></path><path d="M1351 658 a7 7 0 1 0 14 0 a7 7 0 1 0 -14 0zM1211 686 a7 7 0 1 0 14 0 a7 7 0 1 0 -14 0z" fill="#3a7cc3"></path><path d="M294 42L322 14L350 14" stroke-width="4.67" stroke="#3a7cc3"></path><path d="M287 42 a7 7 0 1 0 14 0 a7 7 0 1 0 -14 0zM343 14 a7 7 0 1 0 14 0 a7 7 0 1 0 -14 0z" fill="#3a7cc3"></path><path d="M910 770L882 798L686 798" stroke-width="4.67" stroke="#3a7cc3"></path><path d="M903 770 a7 7 0 1 0 14 0 a7 7 0 1 0 -14 0zM679 798 a7 7 0 1 0 14 0 a7 7 0 1 0 -14 0z" fill="#3a7cc3"></path><path d="M630 154L658 182L658 210L602 266L518 266L406 378L266 378" stroke-width="4.67" stroke="#3a7cc3"></path><path d="M623 154 a7 7 0 1 0 14 0 a7 7 0 1 0 -14 0zM259 378 a7 7 0 1 0 14 0 a7 7 0 1 0 -14 0z" fill="#3a7cc3"></path><path d="M1442 546L1414 546L1330 462L1330 406" stroke-width="4.67" stroke="#3a7cc3"></path><path d="M1435 546 a7 7 0 1 0 14 0 a7 7 0 1 0 -14 0zM1323 406 a7 7 0 1 0 14 0 a7 7 0 1 0 -14 0z" fill="#3a7cc3"></path><path d="M266 462L126 602L70 602" stroke-width="4.67" stroke="#3a7cc3"></path><path d="M259 462 a7 7 0 1 0 14 0 a7 7 0 1 0 -14 0zM63 602 a7 7 0 1 0 14 0 a7 7 0 1 0 -14 0z" fill="#3a7cc3"></path><path d="M378 294L406 294L434 266L462 266" stroke-width="4.67" stroke="#3a7cc3"></path><path d="M371 294 a7 7 0 1 0 14 0 a7 7 0 1 0 -14 0zM455 266 a7 7 0 1 0 14 0 a7 7 0 1 0 -14 0z" fill="#3a7cc3"></path><path d="M518 462L602 462" stroke-width="4.67" stroke="#3a7cc3"></path><path d="M511 462 a7 7 0 1 0 14 0 a7 7 0 1 0 -14 0zM595 462 a7 7 0 1 0 14 0 a7 7 0 1 0 -14 0z" fill="#3a7cc3"></path><path d="M686 630L686 546" stroke-width="4.67" stroke="#3a7cc3"></path><path d="M679 630 a7 7 0 1 0 14 0 a7 7 0 1 0 -14 0zM679 546 a7 7 0 1 0 14 0 a7 7 0 1 0 -14 0z" fill="#3a7cc3"></path><path d="M714 602L798 686" stroke-width="4.67" stroke="#3a7cc3"></path><path d="M707 602 a7 7 0 1 0 14 0 a7 7 0 1 0 -14 0zM791 686 a7 7 0 1 0 14 0 a7 7 0 1 0 -14 0z" fill="#3a7cc3"></path><path d="M714 350L714 406L658 462" stroke-width="4.67" stroke="#3a7cc3"></path><path d="M707 350 a7 7 0 1 0 14 0 a7 7 0 1 0 -14 0zM651 462 a7 7 0 1 0 14 0 a7 7 0 1 0 -14 0z" fill="#3a7cc3"></path><path d="M210 322L154 378L98 378" stroke-width="4.67" stroke="#3a7cc3"></path><path d="M203 322 a7 7 0 1 0 14 0 a7 7 0 1 0 -14 0zM91 378 a7 7 0 1 0 14 0 a7 7 0 1 0 -14 0z" fill="#3a7cc3"></path><path d="M854 770L714 770" stroke-width="4.67" stroke="#3a7cc3"></path><path d="M847 770 a7 7 0 1 0 14 0 a7 7 0 1 0 -14 0zM707 770 a7 7 0 1 0 14 0 a7 7 0 1 0 -14 0z" fill="#3a7cc3"></path><path d="M322 546L294 518L294 490L322 462L434 462" stroke-width="4.67" stroke="#3a7cc3"></path><path d="M315 546 a7 7 0 1 0 14 0 a7 7 0 1 0 -14 0zM427 462 a7 7 0 1 0 14 0 a7 7 0 1 0 -14 0z" fill="#3a7cc3"></path><path d="M266 686L266 658L294 630L406 630" stroke-width="4.67" stroke="#3a7cc3"></path><path d="M259 686 a7 7 0 1 0 14 0 a7 7 0 1 0 -14 0zM399 630 a7 7 0 1 0 14 0 a7 7 0 1 0 -14 0z" fill="#3a7cc3"></path><path d="M490 322L518 294L546 294" stroke-width="4.67" stroke="#3a7cc3"></path><path d="M483 322 a7 7 0 1 0 14 0 a7 7 0 1 0 -14 0zM539 294 a7 7 0 1 0 14 0 a7 7 0 1 0 -14 0z" fill="#3a7cc3"></path><path d="M182 154L182 126L238 70L238 14" stroke-width="4.67" stroke="#3a7cc3"></path><path d="M175 154 a7 7 0 1 0 14 0 a7 7 0 1 0 -14 0zM231 14 a7 7 0 1 0 14 0 a7 7 0 1 0 -14 0z" fill="#3a7cc3"></path><path d="M1078 770L1134 770" stroke-width="4.67" stroke="#3a7cc3"></path><path d="M1071 770 a7 7 0 1 0 14 0 a7 7 0 1 0 -14 0zM1127 770 a7 7 0 1 0 14 0 a7 7 0 1 0 -14 0z" fill="#3a7cc3"></path><path d="M770 490L686 490" stroke-width="4.67" stroke="#3a7cc3"></path><path d="M763 490 a7 7 0 1 0 14 0 a7 7 0 1 0 -14 0zM679 490 a7 7 0 1 0 14 0 a7 7 0 1 0 -14 0z" fill="#3a7cc3"></path><path d="M658 294L686 322L686 406L658 434" stroke-width="4.67" stroke="#3a7cc3"></path><path d="M651 294 a7 7 0 1 0 14 0 a7 7 0 1 0 -14 0zM651 434 a7 7 0 1 0 14 0 a7 7 0 1 0 -14 0z" fill="#3a7cc3"></path><path d="M1078 70L882 70" stroke-width="4.67" stroke="#3a7cc3"></path><path d="M1071 70 a7 7 0 1 0 14 0 a7 7 0 1 0 -14 0zM875 70 a7 7 0 1 0 14 0 a7 7 0 1 0 -14 0z" fill="#3a7cc3"></path><path d="M434 70L462 70L490 42" stroke-width="4.67" stroke="#3a7cc3"></path><path d="M427 70 a7 7 0 1 0 14 0 a7 7 0 1 0 -14 0zM483 42 a7 7 0 1 0 14 0 a7 7 0 1 0 -14 0z" fill="#3a7cc3"></path><path d="M630 742L686 742" stroke-width="4.67" stroke="#3a7cc3"></path><path d="M623 742 a7 7 0 1 0 14 0 a7 7 0 1 0 -14 0zM679 742 a7 7 0 1 0 14 0 a7 7 0 1 0 -14 0z" fill="#3a7cc3"></path><path d="M742 238L798 294L798 322L770 350L742 350L686 294L686 266L714 238" stroke-width="4.67" stroke="#3a7cc3"></path><path d="M735 238 a7 7 0 1 0 14 0 a7 7 0 1 0 -14 0zM707 238 a7 7 0 1 0 14 0 a7 7 0 1 0 -14 0z" fill="#3a7cc3"></path><path d="M602 154L630 182L630 210L602 238L490 238" stroke-width="4.67" stroke="#3a7cc3"></path><path d="M595 154 a7 7 0 1 0 14 0 a7 7 0 1 0 -14 0zM483 238 a7 7 0 1 0 14 0 a7 7 0 1 0 -14 0z" fill="#3a7cc3"></path><path d="M1134 406L1218 406" stroke-width="4.67" stroke="#3a7cc3"></path><path d="M1127 406 a7 7 0 1 0 14 0 a7 7 0 1 0 -14 0zM1211 406 a7 7 0 1 0 14 0 a7 7 0 1 0 -14 0z" fill="#3a7cc3"></path><path d="M630 546L658 574L658 686" stroke-width="4.67" stroke="#3a7cc3"></path><path d="M623 546 a7 7 0 1 0 14 0 a7 7 0 1 0 -14 0zM651 686 a7 7 0 1 0 14 0 a7 7 0 1 0 -14 0z" fill="#3a7cc3"></path><path d="M1218 266L1274 322" stroke-width="4.67" stroke="#3a7cc3"></path><path d="M1211 266 a7 7 0 1 0 14 0 a7 7 0 1 0 -14 0zM1267 322 a7 7 0 1 0 14 0 a7 7 0 1 0 -14 0z" fill="#3a7cc3"></path><path d="M1358 294L1442 294" stroke-width="4.67" stroke="#3a7cc3"></path><path d="M1351 294 a7 7 0 1 0 14 0 a7 7 0 1 0 -14 0zM1435 294 a7 7 0 1 0 14 0 a7 7 0 1 0 -14 0z" fill="#3a7cc3"></path><path d="M574 798L630 798L658 770" stroke-width="4.67" stroke="#3a7cc3"></path><path d="M567 798 a7 7 0 1 0 14 0 a7 7 0 1 0 -14 0zM651 770 a7 7 0 1 0 14 0 a7 7 0 1 0 -14 0z" fill="#3a7cc3"></path><path d="M1246 574L1218 602L1190 602" stroke-width="4.67" stroke="#3a7cc3"></path><path d="M1239 574 a7 7 0 1 0 14 0 a7 7 0 1 0 -14 0zM1183 602 a7 7 0 1 0 14 0 a7 7 0 1 0 -14 0z" fill="#3a7cc3"></path><path d="M770 686L686 686" stroke-width="4.67" stroke="#3a7cc3"></path><path d="M763 686 a7 7 0 1 0 14 0 a7 7 0 1 0 -14 0zM679 686 a7 7 0 1 0 14 0 a7 7 0 1 0 -14 0z" fill="#3a7cc3"></path><path d="M1050 630L1078 630L1106 658" stroke-width="4.67" stroke="#3a7cc3"></path><path d="M1043 630 a7 7 0 1 0 14 0 a7 7 0 1 0 -14 0zM1099 658 a7 7 0 1 0 14 0 a7 7 0 1 0 -14 0z" fill="#3a7cc3"></path><path d="M1386 434L1386 490L1414 518L1442 518" stroke-width="4.67" stroke="#3a7cc3"></path><path d="M1379 434 a7 7 0 1 0 14 0 a7 7 0 1 0 -14 0zM1435 518 a7 7 0 1 0 14 0 a7 7 0 1 0 -14 0z" fill="#3a7cc3"></path><path d="M770 434L826 434L882 490" stroke-width="4.67" stroke="#3a7cc3"></path><path d="M763 434 a7 7 0 1 0 14 0 a7 7 0 1 0 -14 0zM875 490 a7 7 0 1 0 14 0 a7 7 0 1 0 -14 0z" fill="#3a7cc3"></path><path d="M658 322L658 406" stroke-width="4.67" stroke="#3a7cc3"></path><path d="M651 322 a7 7 0 1 0 14 0 a7 7 0 1 0 -14 0zM651 406 a7 7 0 1 0 14 0 a7 7 0 1 0 -14 0z" fill="#3a7cc3"></path><path d="M154 490L126 462L98 462" stroke-width="4.67" stroke="#3a7cc3"></path><path d="M147 490 a7 7 0 1 0 14 0 a7 7 0 1 0 -14 0zM91 462 a7 7 0 1 0 14 0 a7 7 0 1 0 -14 0z" fill="#3a7cc3"></path><path d="M1162 98L1190 126L1302 126" stroke-width="4.67" stroke="#3a7cc3"></path><path d="M1155 98 a7 7 0 1 0 14 0 a7 7 0 1 0 -14 0zM1295 126 a7 7 0 1 0 14 0 a7 7 0 1 0 -14 0z" fill="#3a7cc3"></path><path d="M294 770L322 770L350 742" stroke-width="4.67" stroke="#3a7cc3"></path><path d="M287 770 a7 7 0 1 0 14 0 a7 7 0 1 0 -14 0zM343 742 a7 7 0 1 0 14 0 a7 7 0 1 0 -14 0z" fill="#3a7cc3"></path><path d="M798 574L714 574" stroke-width="4.67" stroke="#3a7cc3"></path><path d="M791 574 a7 7 0 1 0 14 0 a7 7 0 1 0 -14 0zM707 574 a7 7 0 1 0 14 0 a7 7 0 1 0 -14 0z" fill="#3a7cc3"></path><path d="M1386 798L1442 742L1442 714" stroke-width="4.67" stroke="#3a7cc3"></path><path d="M1379 798 a7 7 0 1 0 14 0 a7 7 0 1 0 -14 0zM1435 714 a7 7 0 1 0 14 0 a7 7 0 1 0 -14 0z" fill="#3a7cc3"></path><path d="M938 462L910 434L910 406" stroke-width="4.67" stroke="#3a7cc3"></path><path d="M931 462 a7 7 0 1 0 14 0 a7 7 0 1 0 -14 0zM903 406 a7 7 0 1 0 14 0 a7 7 0 1 0 -14 0z" fill="#3a7cc3"></path><path d="M882 434L882 406L854 378L854 350" stroke-width="4.67" stroke="#3a7cc3"></path><path d="M875 434 a7 7 0 1 0 14 0 a7 7 0 1 0 -14 0zM847 350 a7 7 0 1 0 14 0 a7 7 0 1 0 -14 0z" fill="#3a7cc3"></path><path d="M98 742L98 686L70 658" stroke-width="4.67" stroke="#3a7cc3"></path><path d="M91 742 a7 7 0 1 0 14 0 a7 7 0 1 0 -14 0zM63 658 a7 7 0 1 0 14 0 a7 7 0 1 0 -14 0z" fill="#3a7cc3"></path><path d="M742 602L826 602L854 574L854 546" stroke-width="4.67" stroke="#3a7cc3"></path><path d="M735 602 a7 7 0 1 0 14 0 a7 7 0 1 0 -14 0zM847 546 a7 7 0 1 0 14 0 a7 7 0 1 0 -14 0z" fill="#3a7cc3"></path><path d="M770 210L826 266L826 294" stroke-width="4.67" stroke="#3a7cc3"></path><path d="M763 210 a7 7 0 1 0 14 0 a7 7 0 1 0 -14 0zM819 294 a7 7 0 1 0 14 0 a7 7 0 1 0 -14 0z" fill="#3a7cc3"></path><path d="M798 546L714 546" stroke-width="4.67" stroke="#3a7cc3"></path><path d="M791 546 a7 7 0 1 0 14 0 a7 7 0 1 0 -14 0zM707 546 a7 7 0 1 0 14 0 a7 7 0 1 0 -14 0z" fill="#3a7cc3"></path><path d="M154 462L182 490L182 518L126 574" stroke-width="4.67" stroke="#3a7cc3"></path><path d="M147 462 a7 7 0 1 0 14 0 a7 7 0 1 0 -14 0zM119 574 a7 7 0 1 0 14 0 a7 7 0 1 0 -14 0z" fill="#3a7cc3"></path><path d="M14 154L42 126L42 98L14 70" stroke-width="4.67" stroke="#3a7cc3"></path><path d="M7 154 a7 7 0 1 0 14 0 a7 7 0 1 0 -14 0zM7 70 a7 7 0 1 0 14 0 a7 7 0 1 0 -14 0z" fill="#3a7cc3"></path><path d="M378 490L434 490" stroke-width="4.67" stroke="#3a7cc3"></path><path d="M371 490 a7 7 0 1 0 14 0 a7 7 0 1 0 -14 0zM427 490 a7 7 0 1 0 14 0 a7 7 0 1 0 -14 0z" fill="#3a7cc3"></path><path d="M518 182L574 126L602 126" stroke-width="4.67" stroke="#3a7cc3"></path><path d="M511 182 a7 7 0 1 0 14 0 a7 7 0 1 0 -14 0zM595 126 a7 7 0 1 0 14 0 a7 7 0 1 0 -14 0z" fill="#3a7cc3"></path><path d="M406 546L350 490" stroke-width="4.67" stroke="#3a7cc3"></path><path d="M399 546 a7 7 0 1 0 14 0 a7 7 0 1 0 -14 0zM343 490 a7 7 0 1 0 14 0 a7 7 0 1 0 -14 0z" fill="#3a7cc3"></path><path d="M938 98L994 98" stroke-width="4.67" stroke="#3a7cc3"></path><path d="M931 98 a7 7 0 1 0 14 0 a7 7 0 1 0 -14 0zM987 98 a7 7 0 1 0 14 0 a7 7 0 1 0 -14 0z" fill="#3a7cc3"></path><path d="M406 322L434 322L462 294" stroke-width="4.67" stroke="#3a7cc3"></path><path d="M399 322 a7 7 0 1 0 14 0 a7 7 0 1 0 -14 0zM455 294 a7 7 0 1 0 14 0 a7 7 0 1 0 -14 0z" fill="#3a7cc3"></path><path d="M434 42L406 70L406 126" stroke-width="4.67" stroke="#3a7cc3"></path><path d="M427 42 a7 7 0 1 0 14 0 a7 7 0 1 0 -14 0zM399 126 a7 7 0 1 0 14 0 a7 7 0 1 0 -14 0z" fill="#3a7cc3"></path><path d="M98 70L98 14" stroke-width="4.67" stroke="#3a7cc3"></path><path d="M91 70 a7 7 0 1 0 14 0 a7 7 0 1 0 -14 0zM91 14 a7 7 0 1 0 14 0 a7 7 0 1 0 -14 0z" fill="#3a7cc3"></path><path d="M1274 182L1330 182" stroke-width="4.67" stroke="#3a7cc3"></path><path d="M1267 182 a7 7 0 1 0 14 0 a7 7 0 1 0 -14 0zM1323 182 a7 7 0 1 0 14 0 a7 7 0 1 0 -14 0z" fill="#3a7cc3"></path><path d="M1274 630L1358 630" stroke-width="4.67" stroke="#3a7cc3"></path><path d="M1267 630 a7 7 0 1 0 14 0 a7 7 0 1 0 -14 0zM1351 630 a7 7 0 1 0 14 0 a7 7 0 1 0 -14 0z" fill="#3a7cc3"></path><path d="M518 210L574 154" stroke-width="4.67" stroke="#3a7cc3"></path><path d="M511 210 a7 7 0 1 0 14 0 a7 7 0 1 0 -14 0zM567 154 a7 7 0 1 0 14 0 a7 7 0 1 0 -14 0z" fill="#3a7cc3"></path><path d="M966 630L994 630L1022 658L1078 658" stroke-width="4.67" stroke="#3a7cc3"></path><path d="M959 630 a7 7 0 1 0 14 0 a7 7 0 1 0 -14 0zM1071 658 a7 7 0 1 0 14 0 a7 7 0 1 0 -14 0z" fill="#3a7cc3"></path><path d="M1078 798L1050 770L966 770" stroke-width="4.67" stroke="#3a7cc3"></path><path d="M1071 798 a7 7 0 1 0 14 0 a7 7 0 1 0 -14 0zM959 770 a7 7 0 1 0 14 0 a7 7 0 1 0 -14 0z" fill="#3a7cc3"></path><path d="M182 266L126 266" stroke-width="4.67" stroke="#3a7cc3"></path><path d="M175 266 a7 7 0 1 0 14 0 a7 7 0 1 0 -14 0zM119 266 a7 7 0 1 0 14 0 a7 7 0 1 0 -14 0z" fill="#3a7cc3"></path><path d="M1274 602L1330 546" stroke-width="4.67" stroke="#3a7cc3"></path><path d="M1267 602 a7 7 0 1 0 14 0 a7 7 0 1 0 -14 0zM1323 546 a7 7 0 1 0 14 0 a7 7 0 1 0 -14 0z" fill="#3a7cc3"></path><path d="M1050 490L1050 546" stroke-width="4.67" stroke="#3a7cc3"></path><path d="M1043 490 a7 7 0 1 0 14 0 a7 7 0 1 0 -14 0zM1043 546 a7 7 0 1 0 14 0 a7 7 0 1 0 -14 0z" fill="#3a7cc3"></path><path d="M126 322L182 322" stroke-width="4.67" stroke="#3a7cc3"></path><path d="M119 322 a7 7 0 1 0 14 0 a7 7 0 1 0 -14 0zM175 322 a7 7 0 1 0 14 0 a7 7 0 1 0 -14 0z" fill="#3a7cc3"></path><path d="M994 574L1022 574L1050 602" stroke-width="4.67" stroke="#3a7cc3"></path><path d="M987 574 a7 7 0 1 0 14 0 a7 7 0 1 0 -14 0zM1043 602 a7 7 0 1 0 14 0 a7 7 0 1 0 -14 0z" fill="#3a7cc3"></path><path d="M854 490L826 462L714 462" stroke-width="4.67" stroke="#3a7cc3"></path><path d="M847 490 a7 7 0 1 0 14 0 a7 7 0 1 0 -14 0zM707 462 a7 7 0 1 0 14 0 a7 7 0 1 0 -14 0z" fill="#3a7cc3"></path><path d="M1162 294L1134 266L1134 238" stroke-width="4.67" stroke="#3a7cc3"></path><path d="M1155 294 a7 7 0 1 0 14 0 a7 7 0 1 0 -14 0zM1127 238 a7 7 0 1 0 14 0 a7 7 0 1 0 -14 0z" fill="#3a7cc3"></path><path d="M322 322L350 322L378 350" stroke-width="4.67" stroke="#3a7cc3"></path><path d="M315 322 a7 7 0 1 0 14 0 a7 7 0 1 0 -14 0zM371 350 a7 7 0 1 0 14 0 a7 7 0 1 0 -14 0z" fill="#3a7cc3"></path><path d="M1190 238L1190 294" stroke-width="4.67" stroke="#3a7cc3"></path><path d="M1183 238 a7 7 0 1 0 14 0 a7 7 0 1 0 -14 0zM1183 294 a7 7 0 1 0 14 0 a7 7 0 1 0 -14 0z" fill="#3a7cc3"></path><path d="M742 70L742 126" stroke-width="4.67" stroke="#3a7cc3"></path><path d="M735 70 a7 7 0 1 0 14 0 a7 7 0 1 0 -14 0zM735 126 a7 7 0 1 0 14 0 a7 7 0 1 0 -14 0z" fill="#3a7cc3"></path><path d="M574 630L630 630" stroke-width="4.67" stroke="#3a7cc3"></path><path d="M567 630 a7 7 0 1 0 14 0 a7 7 0 1 0 -14 0zM623 630 a7 7 0 1 0 14 0 a7 7 0 1 0 -14 0z" fill="#3a7cc3"></path><path d="M574 658L602 686L630 686" stroke-width="4.67" stroke="#3a7cc3"></path><path d="M567 658 a7 7 0 1 0 14 0 a7 7 0 1 0 -14 0zM623 686 a7 7 0 1 0 14 0 a7 7 0 1 0 -14 0z" fill="#3a7cc3"></path><path d="M1246 630L1190 630" stroke-width="4.67" stroke="#3a7cc3"></path><path d="M1239 630 a7 7 0 1 0 14 0 a7 7 0 1 0 -14 0zM1183 630 a7 7 0 1 0 14 0 a7 7 0 1 0 -14 0z" fill="#3a7cc3"></path><path d="M518 742L602 742" stroke-width="4.67" stroke="#3a7cc3"></path><path d="M511 742 a7 7 0 1 0 14 0 a7 7 0 1 0 -14 0zM595 742 a7 7 0 1 0 14 0 a7 7 0 1 0 -14 0z" fill="#3a7cc3"></path><path d="M490 350L462 378L434 378" stroke-width="4.67" stroke="#3a7cc3"></path><path d="M483 350 a7 7 0 1 0 14 0 a7 7 0 1 0 -14 0zM427 378 a7 7 0 1 0 14 0 a7 7 0 1 0 -14 0z" fill="#3a7cc3"></path><path d="M42 154L42 182L14 210" stroke-width="4.67" stroke="#3a7cc3"></path><path d="M35 154 a7 7 0 1 0 14 0 a7 7 0 1 0 -14 0zM7 210 a7 7 0 1 0 14 0 a7 7 0 1 0 -14 0z" fill="#3a7cc3"></path><path d="M98 350L154 350" stroke-width="4.67" stroke="#3a7cc3"></path><path d="M91 350 a7 7 0 1 0 14 0 a7 7 0 1 0 -14 0zM147 350 a7 7 0 1 0 14 0 a7 7 0 1 0 -14 0z" fill="#3a7cc3"></path></g></g><defs><mask id="SvgjsMask1144"><rect width="1440" height="800" fill="#ffffff"></rect></mask><mask id="SvgjsMask1145"><rect width="1440" height="800" fill="white"></rect><path d="M38.5 406 a3.5 3.5 0 1 0 7 0 a3.5 3.5 0 1 0 -7 0zM10.5 798 a3.5 3.5 0 1 0 7 0 a3.5 3.5 0 1 0 -7 0z" fill="black"></path><path d="M94.5 546 a3.5 3.5 0 1 0 7 0 a3.5 3.5 0 1 0 -7 0zM150.5 14 a3.5 3.5 0 1 0 7 0 a3.5 3.5 0 1 0 -7 0z" fill="black"></path><path d="M710.5 98 a3.5 3.5 0 1 0 7 0 a3.5 3.5 0 1 0 -7 0zM178.5 378 a3.5 3.5 0 1 0 7 0 a3.5 3.5 0 1 0 -7 0z" fill="black"></path><path d="M1018.5 462 a3.5 3.5 0 1 0 7 0 a3.5 3.5 0 1 0 -7 0zM1438.5 658 a3.5 3.5 0 1 0 7 0 a3.5 3.5 0 1 0 -7 0z" fill="black"></path><path d="M94.5 126 a3.5 3.5 0 1 0 7 0 a3.5 3.5 0 1 0 -7 0zM10.5 658 a3.5 3.5 0 1 0 7 0 a3.5 3.5 0 1 0 -7 0z" fill="black"></path><path d="M598.5 434 a3.5 3.5 0 1 0 7 0 a3.5 3.5 0 1 0 -7 0zM66.5 630 a3.5 3.5 0 1 0 7 0 a3.5 3.5 0 1 0 -7 0z" fill="black"></path><path d="M1298.5 322 a3.5 3.5 0 1 0 7 0 a3.5 3.5 0 1 0 -7 0zM822.5 70 a3.5 3.5 0 1 0 7 0 a3.5 3.5 0 1 0 -7 0z" fill="black"></path><path d="M430.5 742 a3.5 3.5 0 1 0 7 0 a3.5 3.5 0 1 0 -7 0zM430.5 798 a3.5 3.5 0 1 0 7 0 a3.5 3.5 0 1 0 -7 0z" fill="black"></path><path d="M1410.5 350 a3.5 3.5 0 1 0 7 0 a3.5 3.5 0 1 0 -7 0zM878.5 210 a3.5 3.5 0 1 0 7 0 a3.5 3.5 0 1 0 -7 0z" fill="black"></path><path d="M234.5 434 a3.5 3.5 0 1 0 7 0 a3.5 3.5 0 1 0 -7 0zM94.5 434 a3.5 3.5 0 1 0 7 0 a3.5 3.5 0 1 0 -7 0z" fill="black"></path><path d="M1046.5 378 a3.5 3.5 0 1 0 7 0 a3.5 3.5 0 1 0 -7 0zM514.5 70 a3.5 3.5 0 1 0 7 0 a3.5 3.5 0 1 0 -7 0z" fill="black"></path><path d="M1270.5 14 a3.5 3.5 0 1 0 7 0 a3.5 3.5 0 1 0 -7 0zM738.5 14 a3.5 3.5 0 1 0 7 0 a3.5 3.5 0 1 0 -7 0z" fill="black"></path><path d="M1046.5 266 a3.5 3.5 0 1 0 7 0 a3.5 3.5 0 1 0 -7 0zM1018.5 322 a3.5 3.5 0 1 0 7 0 a3.5 3.5 0 1 0 -7 0z" fill="black"></path><path d="M374.5 98 a3.5 3.5 0 1 0 7 0 a3.5 3.5 0 1 0 -7 0zM94.5 294 a3.5 3.5 0 1 0 7 0 a3.5 3.5 0 1 0 -7 0z" fill="black"></path><path d="M1242.5 658 a3.5 3.5 0 1 0 7 0 a3.5 3.5 0 1 0 -7 0zM1438.5 378 a3.5 3.5 0 1 0 7 0 a3.5 3.5 0 1 0 -7 0z" fill="black"></path><path d="M122.5 70 a3.5 3.5 0 1 0 7 0 a3.5 3.5 0 1 0 -7 0zM122.5 14 a3.5 3.5 0 1 0 7 0 a3.5 3.5 0 1 0 -7 0z" fill="black"></path><path d="M290.5 98 a3.5 3.5 0 1 0 7 0 a3.5 3.5 0 1 0 -7 0zM514.5 14 a3.5 3.5 0 1 0 7 0 a3.5 3.5 0 1 0 -7 0z" fill="black"></path><path d="M1326.5 266 a3.5 3.5 0 1 0 7 0 a3.5 3.5 0 1 0 -7 0zM850.5 70 a3.5 3.5 0 1 0 7 0 a3.5 3.5 0 1 0 -7 0z" fill="black"></path><path d="M570.5 294 a3.5 3.5 0 1 0 7 0 a3.5 3.5 0 1 0 -7 0zM94.5 406 a3.5 3.5 0 1 0 7 0 a3.5 3.5 0 1 0 -7 0z" fill="black"></path><path d="M1074.5 266 a3.5 3.5 0 1 0 7 0 a3.5 3.5 0 1 0 -7 0zM1102.5 602 a3.5 3.5 0 1 0 7 0 a3.5 3.5 0 1 0 -7 0z" fill="black"></path><path d="M1326.5 154 a3.5 3.5 0 1 0 7 0 a3.5 3.5 0 1 0 -7 0zM794.5 42 a3.5 3.5 0 1 0 7 0 a3.5 3.5 0 1 0 -7 0z" fill="black"></path><path d="M822.5 350 a3.5 3.5 0 1 0 7 0 a3.5 3.5 0 1 0 -7 0zM1046.5 434 a3.5 3.5 0 1 0 7 0 a3.5 3.5 0 1 0 -7 0z" fill="black"></path><path d="M1382.5 546 a3.5 3.5 0 1 0 7 0 a3.5 3.5 0 1 0 -7 0zM1186.5 686 a3.5 3.5 0 1 0 7 0 a3.5 3.5 0 1 0 -7 0z" fill="black"></path><path d="M1382.5 14 a3.5 3.5 0 1 0 7 0 a3.5 3.5 0 1 0 -7 0zM1102.5 42 a3.5 3.5 0 1 0 7 0 a3.5 3.5 0 1 0 -7 0z" fill="black"></path><path d="M514.5 406 a3.5 3.5 0 1 0 7 0 a3.5 3.5 0 1 0 -7 0zM458.5 182 a3.5 3.5 0 1 0 7 0 a3.5 3.5 0 1 0 -7 0z" fill="black"></path><path d="M962.5 322 a3.5 3.5 0 1 0 7 0 a3.5 3.5 0 1 0 -7 0zM1046.5 406 a3.5 3.5 0 1 0 7 0 a3.5 3.5 0 1 0 -7 0z" fill="black"></path><path d="M1102.5 490 a3.5 3.5 0 1 0 7 0 a3.5 3.5 0 1 0 -7 0zM1102.5 294 a3.5 3.5 0 1 0 7 0 a3.5 3.5 0 1 0 -7 0z" fill="black"></path><path d="M1354.5 154 a3.5 3.5 0 1 0 7 0 a3.5 3.5 0 1 0 -7 0zM1438.5 14 a3.5 3.5 0 1 0 7 0 a3.5 3.5 0 1 0 -7 0z" fill="black"></path><path d="M262.5 238 a3.5 3.5 0 1 0 7 0 a3.5 3.5 0 1 0 -7 0zM262.5 14 a3.5 3.5 0 1 0 7 0 a3.5 3.5 0 1 0 -7 0z" fill="black"></path><path d="M682.5 182 a3.5 3.5 0 1 0 7 0 a3.5 3.5 0 1 0 -7 0zM206.5 378 a3.5 3.5 0 1 0 7 0 a3.5 3.5 0 1 0 -7 0z" fill="black"></path><path d="M654.5 490 a3.5 3.5 0 1 0 7 0 a3.5 3.5 0 1 0 -7 0zM934.5 294 a3.5 3.5 0 1 0 7 0 a3.5 3.5 0 1 0 -7 0z" fill="black"></path><path d="M962.5 714 a3.5 3.5 0 1 0 7 0 a3.5 3.5 0 1 0 -7 0zM430.5 714 a3.5 3.5 0 1 0 7 0 a3.5 3.5 0 1 0 -7 0z" fill="black"></path><path d="M1046.5 126 a3.5 3.5 0 1 0 7 0 a3.5 3.5 0 1 0 -7 0zM878.5 126 a3.5 3.5 0 1 0 7 0 a3.5 3.5 0 1 0 -7 0z" fill="black"></path><path d="M1270.5 546 a3.5 3.5 0 1 0 7 0 a3.5 3.5 0 1 0 -7 0zM1158.5 630 a3.5 3.5 0 1 0 7 0 a3.5 3.5 0 1 0 -7 0z" fill="black"></path><path d="M598.5 546 a3.5 3.5 0 1 0 7 0 a3.5 3.5 0 1 0 -7 0zM990.5 518 a3.5 3.5 0 1 0 7 0 a3.5 3.5 0 1 0 -7 0z" fill="black"></path><path d="M1270.5 490 a3.5 3.5 0 1 0 7 0 a3.5 3.5 0 1 0 -7 0zM1270.5 406 a3.5 3.5 0 1 0 7 0 a3.5 3.5 0 1 0 -7 0z" fill="black"></path><path d="M1382.5 322 a3.5 3.5 0 1 0 7 0 a3.5 3.5 0 1 0 -7 0zM1298.5 294 a3.5 3.5 0 1 0 7 0 a3.5 3.5 0 1 0 -7 0z" fill="black"></path><path d="M234.5 714 a3.5 3.5 0 1 0 7 0 a3.5 3.5 0 1 0 -7 0zM458.5 462 a3.5 3.5 0 1 0 7 0 a3.5 3.5 0 1 0 -7 0z" fill="black"></path><path d="M262.5 630 a3.5 3.5 0 1 0 7 0 a3.5 3.5 0 1 0 -7 0zM38.5 798 a3.5 3.5 0 1 0 7 0 a3.5 3.5 0 1 0 -7 0z" fill="black"></path><path d="M1438.5 210 a3.5 3.5 0 1 0 7 0 a3.5 3.5 0 1 0 -7 0zM1214.5 182 a3.5 3.5 0 1 0 7 0 a3.5 3.5 0 1 0 -7 0z" fill="black"></path><path d="M990.5 378 a3.5 3.5 0 1 0 7 0 a3.5 3.5 0 1 0 -7 0zM850.5 322 a3.5 3.5 0 1 0 7 0 a3.5 3.5 0 1 0 -7 0z" fill="black"></path><path d="M206.5 602 a3.5 3.5 0 1 0 7 0 a3.5 3.5 0 1 0 -7 0zM430.5 602 a3.5 3.5 0 1 0 7 0 a3.5 3.5 0 1 0 -7 0z" fill="black"></path><path d="M626.5 490 a3.5 3.5 0 1 0 7 0 a3.5 3.5 0 1 0 -7 0zM738.5 182 a3.5 3.5 0 1 0 7 0 a3.5 3.5 0 1 0 -7 0z" fill="black"></path><path d="M766.5 630 a3.5 3.5 0 1 0 7 0 a3.5 3.5 0 1 0 -7 0zM1158.5 798 a3.5 3.5 0 1 0 7 0 a3.5 3.5 0 1 0 -7 0z" fill="black"></path><path d="M794.5 126 a3.5 3.5 0 1 0 7 0 a3.5 3.5 0 1 0 -7 0zM654.5 14 a3.5 3.5 0 1 0 7 0 a3.5 3.5 0 1 0 -7 0z" fill="black"></path><path d="M1326.5 14 a3.5 3.5 0 1 0 7 0 a3.5 3.5 0 1 0 -7 0zM1130.5 42 a3.5 3.5 0 1 0 7 0 a3.5 3.5 0 1 0 -7 0z" fill="black"></path><path d="M206.5 574 a3.5 3.5 0 1 0 7 0 a3.5 3.5 0 1 0 -7 0zM430.5 574 a3.5 3.5 0 1 0 7 0 a3.5 3.5 0 1 0 -7 0z" fill="black"></path><path d="M1186.5 518 a3.5 3.5 0 1 0 7 0 a3.5 3.5 0 1 0 -7 0zM1242.5 462 a3.5 3.5 0 1 0 7 0 a3.5 3.5 0 1 0 -7 0z" fill="black"></path><path d="M234.5 266 a3.5 3.5 0 1 0 7 0 a3.5 3.5 0 1 0 -7 0zM94.5 266 a3.5 3.5 0 1 0 7 0 a3.5 3.5 0 1 0 -7 0z" fill="black"></path><path d="M542.5 546 a3.5 3.5 0 1 0 7 0 a3.5 3.5 0 1 0 -7 0zM514.5 686 a3.5 3.5 0 1 0 7 0 a3.5 3.5 0 1 0 -7 0z" fill="black"></path><path d="M514.5 798 a3.5 3.5 0 1 0 7 0 a3.5 3.5 0 1 0 -7 0zM458.5 742 a3.5 3.5 0 1 0 7 0 a3.5 3.5 0 1 0 -7 0z" fill="black"></path><path d="M1242.5 378 a3.5 3.5 0 1 0 7 0 a3.5 3.5 0 1 0 -7 0zM1130.5 378 a3.5 3.5 0 1 0 7 0 a3.5 3.5 0 1 0 -7 0z" fill="black"></path><path d="M1354.5 182 a3.5 3.5 0 1 0 7 0 a3.5 3.5 0 1 0 -7 0zM1410.5 70 a3.5 3.5 0 1 0 7 0 a3.5 3.5 0 1 0 -7 0z" fill="black"></path><path d="M766.5 70 a3.5 3.5 0 1 0 7 0 a3.5 3.5 0 1 0 -7 0zM878.5 238 a3.5 3.5 0 1 0 7 0 a3.5 3.5 0 1 0 -7 0z" fill="black"></path><path d="M94.5 658 a3.5 3.5 0 1 0 7 0 a3.5 3.5 0 1 0 -7 0zM38.5 770 a3.5 3.5 0 1 0 7 0 a3.5 3.5 0 1 0 -7 0z" fill="black"></path><path d="M598.5 770 a3.5 3.5 0 1 0 7 0 a3.5 3.5 0 1 0 -7 0zM486.5 742 a3.5 3.5 0 1 0 7 0 a3.5 3.5 0 1 0 -7 0z" fill="black"></path><path d="M486.5 630 a3.5 3.5 0 1 0 7 0 a3.5 3.5 0 1 0 -7 0zM122.5 798 a3.5 3.5 0 1 0 7 0 a3.5 3.5 0 1 0 -7 0z" fill="black"></path><path d="M1130.5 434 a3.5 3.5 0 1 0 7 0 a3.5 3.5 0 1 0 -7 0zM1102.5 574 a3.5 3.5 0 1 0 7 0 a3.5 3.5 0 1 0 -7 0z" fill="black"></path><path d="M990.5 546 a3.5 3.5 0 1 0 7 0 a3.5 3.5 0 1 0 -7 0zM906.5 658 a3.5 3.5 0 1 0 7 0 a3.5 3.5 0 1 0 -7 0z" fill="black"></path><path d="M10.5 238 a3.5 3.5 0 1 0 7 0 a3.5 3.5 0 1 0 -7 0zM10.5 14 a3.5 3.5 0 1 0 7 0 a3.5 3.5 0 1 0 -7 0z" fill="black"></path><path d="M822.5 658 a3.5 3.5 0 1 0 7 0 a3.5 3.5 0 1 0 -7 0zM962.5 546 a3.5 3.5 0 1 0 7 0 a3.5 3.5 0 1 0 -7 0z" fill="black"></path><path d="M346.5 70 a3.5 3.5 0 1 0 7 0 a3.5 3.5 0 1 0 -7 0zM290.5 210 a3.5 3.5 0 1 0 7 0 a3.5 3.5 0 1 0 -7 0z" fill="black"></path><path d="M654.5 798 a3.5 3.5 0 1 0 7 0 a3.5 3.5 0 1 0 -7 0zM1130.5 742 a3.5 3.5 0 1 0 7 0 a3.5 3.5 0 1 0 -7 0z" fill="black"></path><path d="M402.5 350 a3.5 3.5 0 1 0 7 0 a3.5 3.5 0 1 0 -7 0zM234.5 378 a3.5 3.5 0 1 0 7 0 a3.5 3.5 0 1 0 -7 0z" fill="black"></path><path d="M570.5 574 a3.5 3.5 0 1 0 7 0 a3.5 3.5 0 1 0 -7 0zM542.5 686 a3.5 3.5 0 1 0 7 0 a3.5 3.5 0 1 0 -7 0z" fill="black"></path><path d="M1102.5 182 a3.5 3.5 0 1 0 7 0 a3.5 3.5 0 1 0 -7 0zM1158.5 182 a3.5 3.5 0 1 0 7 0 a3.5 3.5 0 1 0 -7 0z" fill="black"></path><path d="M1270.5 742 a3.5 3.5 0 1 0 7 0 a3.5 3.5 0 1 0 -7 0zM1298.5 406 a3.5 3.5 0 1 0 7 0 a3.5 3.5 0 1 0 -7 0z" fill="black"></path><path d="M878.5 378 a3.5 3.5 0 1 0 7 0 a3.5 3.5 0 1 0 -7 0zM1018.5 406 a3.5 3.5 0 1 0 7 0 a3.5 3.5 0 1 0 -7 0z" fill="black"></path><path d="M1354.5 658 a3.5 3.5 0 1 0 7 0 a3.5 3.5 0 1 0 -7 0zM1214.5 686 a3.5 3.5 0 1 0 7 0 a3.5 3.5 0 1 0 -7 0z" fill="black"></path><path d="M290.5 42 a3.5 3.5 0 1 0 7 0 a3.5 3.5 0 1 0 -7 0zM346.5 14 a3.5 3.5 0 1 0 7 0 a3.5 3.5 0 1 0 -7 0z" fill="black"></path><path d="M906.5 770 a3.5 3.5 0 1 0 7 0 a3.5 3.5 0 1 0 -7 0zM682.5 798 a3.5 3.5 0 1 0 7 0 a3.5 3.5 0 1 0 -7 0z" fill="black"></path><path d="M626.5 154 a3.5 3.5 0 1 0 7 0 a3.5 3.5 0 1 0 -7 0zM262.5 378 a3.5 3.5 0 1 0 7 0 a3.5 3.5 0 1 0 -7 0z" fill="black"></path><path d="M1438.5 546 a3.5 3.5 0 1 0 7 0 a3.5 3.5 0 1 0 -7 0zM1326.5 406 a3.5 3.5 0 1 0 7 0 a3.5 3.5 0 1 0 -7 0z" fill="black"></path><path d="M262.5 462 a3.5 3.5 0 1 0 7 0 a3.5 3.5 0 1 0 -7 0zM66.5 602 a3.5 3.5 0 1 0 7 0 a3.5 3.5 0 1 0 -7 0z" fill="black"></path><path d="M374.5 294 a3.5 3.5 0 1 0 7 0 a3.5 3.5 0 1 0 -7 0zM458.5 266 a3.5 3.5 0 1 0 7 0 a3.5 3.5 0 1 0 -7 0z" fill="black"></path><path d="M514.5 462 a3.5 3.5 0 1 0 7 0 a3.5 3.5 0 1 0 -7 0zM598.5 462 a3.5 3.5 0 1 0 7 0 a3.5 3.5 0 1 0 -7 0z" fill="black"></path><path d="M682.5 630 a3.5 3.5 0 1 0 7 0 a3.5 3.5 0 1 0 -7 0zM682.5 546 a3.5 3.5 0 1 0 7 0 a3.5 3.5 0 1 0 -7 0z" fill="black"></path><path d="M710.5 602 a3.5 3.5 0 1 0 7 0 a3.5 3.5 0 1 0 -7 0zM794.5 686 a3.5 3.5 0 1 0 7 0 a3.5 3.5 0 1 0 -7 0z" fill="black"></path><path d="M710.5 350 a3.5 3.5 0 1 0 7 0 a3.5 3.5 0 1 0 -7 0zM654.5 462 a3.5 3.5 0 1 0 7 0 a3.5 3.5 0 1 0 -7 0z" fill="black"></path><path d="M206.5 322 a3.5 3.5 0 1 0 7 0 a3.5 3.5 0 1 0 -7 0zM94.5 378 a3.5 3.5 0 1 0 7 0 a3.5 3.5 0 1 0 -7 0z" fill="black"></path><path d="M850.5 770 a3.5 3.5 0 1 0 7 0 a3.5 3.5 0 1 0 -7 0zM710.5 770 a3.5 3.5 0 1 0 7 0 a3.5 3.5 0 1 0 -7 0z" fill="black"></path><path d="M318.5 546 a3.5 3.5 0 1 0 7 0 a3.5 3.5 0 1 0 -7 0zM430.5 462 a3.5 3.5 0 1 0 7 0 a3.5 3.5 0 1 0 -7 0z" fill="black"></path><path d="M262.5 686 a3.5 3.5 0 1 0 7 0 a3.5 3.5 0 1 0 -7 0zM402.5 630 a3.5 3.5 0 1 0 7 0 a3.5 3.5 0 1 0 -7 0z" fill="black"></path><path d="M486.5 322 a3.5 3.5 0 1 0 7 0 a3.5 3.5 0 1 0 -7 0zM542.5 294 a3.5 3.5 0 1 0 7 0 a3.5 3.5 0 1 0 -7 0z" fill="black"></path><path d="M178.5 154 a3.5 3.5 0 1 0 7 0 a3.5 3.5 0 1 0 -7 0zM234.5 14 a3.5 3.5 0 1 0 7 0 a3.5 3.5 0 1 0 -7 0z" fill="black"></path><path d="M1074.5 770 a3.5 3.5 0 1 0 7 0 a3.5 3.5 0 1 0 -7 0zM1130.5 770 a3.5 3.5 0 1 0 7 0 a3.5 3.5 0 1 0 -7 0z" fill="black"></path><path d="M766.5 490 a3.5 3.5 0 1 0 7 0 a3.5 3.5 0 1 0 -7 0zM682.5 490 a3.5 3.5 0 1 0 7 0 a3.5 3.5 0 1 0 -7 0z" fill="black"></path><path d="M654.5 294 a3.5 3.5 0 1 0 7 0 a3.5 3.5 0 1 0 -7 0zM654.5 434 a3.5 3.5 0 1 0 7 0 a3.5 3.5 0 1 0 -7 0z" fill="black"></path><path d="M1074.5 70 a3.5 3.5 0 1 0 7 0 a3.5 3.5 0 1 0 -7 0zM878.5 70 a3.5 3.5 0 1 0 7 0 a3.5 3.5 0 1 0 -7 0z" fill="black"></path><path d="M430.5 70 a3.5 3.5 0 1 0 7 0 a3.5 3.5 0 1 0 -7 0zM486.5 42 a3.5 3.5 0 1 0 7 0 a3.5 3.5 0 1 0 -7 0z" fill="black"></path><path d="M626.5 742 a3.5 3.5 0 1 0 7 0 a3.5 3.5 0 1 0 -7 0zM682.5 742 a3.5 3.5 0 1 0 7 0 a3.5 3.5 0 1 0 -7 0z" fill="black"></path><path d="M738.5 238 a3.5 3.5 0 1 0 7 0 a3.5 3.5 0 1 0 -7 0zM710.5 238 a3.5 3.5 0 1 0 7 0 a3.5 3.5 0 1 0 -7 0z" fill="black"></path><path d="M598.5 154 a3.5 3.5 0 1 0 7 0 a3.5 3.5 0 1 0 -7 0zM486.5 238 a3.5 3.5 0 1 0 7 0 a3.5 3.5 0 1 0 -7 0z" fill="black"></path><path d="M1130.5 406 a3.5 3.5 0 1 0 7 0 a3.5 3.5 0 1 0 -7 0zM1214.5 406 a3.5 3.5 0 1 0 7 0 a3.5 3.5 0 1 0 -7 0z" fill="black"></path><path d="M626.5 546 a3.5 3.5 0 1 0 7 0 a3.5 3.5 0 1 0 -7 0zM654.5 686 a3.5 3.5 0 1 0 7 0 a3.5 3.5 0 1 0 -7 0z" fill="black"></path><path d="M1214.5 266 a3.5 3.5 0 1 0 7 0 a3.5 3.5 0 1 0 -7 0zM1270.5 322 a3.5 3.5 0 1 0 7 0 a3.5 3.5 0 1 0 -7 0z" fill="black"></path><path d="M1354.5 294 a3.5 3.5 0 1 0 7 0 a3.5 3.5 0 1 0 -7 0zM1438.5 294 a3.5 3.5 0 1 0 7 0 a3.5 3.5 0 1 0 -7 0z" fill="black"></path><path d="M570.5 798 a3.5 3.5 0 1 0 7 0 a3.5 3.5 0 1 0 -7 0zM654.5 770 a3.5 3.5 0 1 0 7 0 a3.5 3.5 0 1 0 -7 0z" fill="black"></path><path d="M1242.5 574 a3.5 3.5 0 1 0 7 0 a3.5 3.5 0 1 0 -7 0zM1186.5 602 a3.5 3.5 0 1 0 7 0 a3.5 3.5 0 1 0 -7 0z" fill="black"></path><path d="M766.5 686 a3.5 3.5 0 1 0 7 0 a3.5 3.5 0 1 0 -7 0zM682.5 686 a3.5 3.5 0 1 0 7 0 a3.5 3.5 0 1 0 -7 0z" fill="black"></path><path d="M1046.5 630 a3.5 3.5 0 1 0 7 0 a3.5 3.5 0 1 0 -7 0zM1102.5 658 a3.5 3.5 0 1 0 7 0 a3.5 3.5 0 1 0 -7 0z" fill="black"></path><path d="M1382.5 434 a3.5 3.5 0 1 0 7 0 a3.5 3.5 0 1 0 -7 0zM1438.5 518 a3.5 3.5 0 1 0 7 0 a3.5 3.5 0 1 0 -7 0z" fill="black"></path><path d="M766.5 434 a3.5 3.5 0 1 0 7 0 a3.5 3.5 0 1 0 -7 0zM878.5 490 a3.5 3.5 0 1 0 7 0 a3.5 3.5 0 1 0 -7 0z" fill="black"></path><path d="M654.5 322 a3.5 3.5 0 1 0 7 0 a3.5 3.5 0 1 0 -7 0zM654.5 406 a3.5 3.5 0 1 0 7 0 a3.5 3.5 0 1 0 -7 0z" fill="black"></path><path d="M150.5 490 a3.5 3.5 0 1 0 7 0 a3.5 3.5 0 1 0 -7 0zM94.5 462 a3.5 3.5 0 1 0 7 0 a3.5 3.5 0 1 0 -7 0z" fill="black"></path><path d="M1158.5 98 a3.5 3.5 0 1 0 7 0 a3.5 3.5 0 1 0 -7 0zM1298.5 126 a3.5 3.5 0 1 0 7 0 a3.5 3.5 0 1 0 -7 0z" fill="black"></path><path d="M290.5 770 a3.5 3.5 0 1 0 7 0 a3.5 3.5 0 1 0 -7 0zM346.5 742 a3.5 3.5 0 1 0 7 0 a3.5 3.5 0 1 0 -7 0z" fill="black"></path><path d="M794.5 574 a3.5 3.5 0 1 0 7 0 a3.5 3.5 0 1 0 -7 0zM710.5 574 a3.5 3.5 0 1 0 7 0 a3.5 3.5 0 1 0 -7 0z" fill="black"></path><path d="M1382.5 798 a3.5 3.5 0 1 0 7 0 a3.5 3.5 0 1 0 -7 0zM1438.5 714 a3.5 3.5 0 1 0 7 0 a3.5 3.5 0 1 0 -7 0z" fill="black"></path><path d="M934.5 462 a3.5 3.5 0 1 0 7 0 a3.5 3.5 0 1 0 -7 0zM906.5 406 a3.5 3.5 0 1 0 7 0 a3.5 3.5 0 1 0 -7 0z" fill="black"></path><path d="M878.5 434 a3.5 3.5 0 1 0 7 0 a3.5 3.5 0 1 0 -7 0zM850.5 350 a3.5 3.5 0 1 0 7 0 a3.5 3.5 0 1 0 -7 0z" fill="black"></path><path d="M94.5 742 a3.5 3.5 0 1 0 7 0 a3.5 3.5 0 1 0 -7 0zM66.5 658 a3.5 3.5 0 1 0 7 0 a3.5 3.5 0 1 0 -7 0z" fill="black"></path><path d="M738.5 602 a3.5 3.5 0 1 0 7 0 a3.5 3.5 0 1 0 -7 0zM850.5 546 a3.5 3.5 0 1 0 7 0 a3.5 3.5 0 1 0 -7 0z" fill="black"></path><path d="M766.5 210 a3.5 3.5 0 1 0 7 0 a3.5 3.5 0 1 0 -7 0zM822.5 294 a3.5 3.5 0 1 0 7 0 a3.5 3.5 0 1 0 -7 0z" fill="black"></path><path d="M794.5 546 a3.5 3.5 0 1 0 7 0 a3.5 3.5 0 1 0 -7 0zM710.5 546 a3.5 3.5 0 1 0 7 0 a3.5 3.5 0 1 0 -7 0z" fill="black"></path><path d="M150.5 462 a3.5 3.5 0 1 0 7 0 a3.5 3.5 0 1 0 -7 0zM122.5 574 a3.5 3.5 0 1 0 7 0 a3.5 3.5 0 1 0 -7 0z" fill="black"></path><path d="M10.5 154 a3.5 3.5 0 1 0 7 0 a3.5 3.5 0 1 0 -7 0zM10.5 70 a3.5 3.5 0 1 0 7 0 a3.5 3.5 0 1 0 -7 0z" fill="black"></path><path d="M374.5 490 a3.5 3.5 0 1 0 7 0 a3.5 3.5 0 1 0 -7 0zM430.5 490 a3.5 3.5 0 1 0 7 0 a3.5 3.5 0 1 0 -7 0z" fill="black"></path><path d="M514.5 182 a3.5 3.5 0 1 0 7 0 a3.5 3.5 0 1 0 -7 0zM598.5 126 a3.5 3.5 0 1 0 7 0 a3.5 3.5 0 1 0 -7 0z" fill="black"></path><path d="M402.5 546 a3.5 3.5 0 1 0 7 0 a3.5 3.5 0 1 0 -7 0zM346.5 490 a3.5 3.5 0 1 0 7 0 a3.5 3.5 0 1 0 -7 0z" fill="black"></path><path d="M934.5 98 a3.5 3.5 0 1 0 7 0 a3.5 3.5 0 1 0 -7 0zM990.5 98 a3.5 3.5 0 1 0 7 0 a3.5 3.5 0 1 0 -7 0z" fill="black"></path><path d="M402.5 322 a3.5 3.5 0 1 0 7 0 a3.5 3.5 0 1 0 -7 0zM458.5 294 a3.5 3.5 0 1 0 7 0 a3.5 3.5 0 1 0 -7 0z" fill="black"></path><path d="M430.5 42 a3.5 3.5 0 1 0 7 0 a3.5 3.5 0 1 0 -7 0zM402.5 126 a3.5 3.5 0 1 0 7 0 a3.5 3.5 0 1 0 -7 0z" fill="black"></path><path d="M94.5 70 a3.5 3.5 0 1 0 7 0 a3.5 3.5 0 1 0 -7 0zM94.5 14 a3.5 3.5 0 1 0 7 0 a3.5 3.5 0 1 0 -7 0z" fill="black"></path><path d="M1270.5 182 a3.5 3.5 0 1 0 7 0 a3.5 3.5 0 1 0 -7 0zM1326.5 182 a3.5 3.5 0 1 0 7 0 a3.5 3.5 0 1 0 -7 0z" fill="black"></path><path d="M1270.5 630 a3.5 3.5 0 1 0 7 0 a3.5 3.5 0 1 0 -7 0zM1354.5 630 a3.5 3.5 0 1 0 7 0 a3.5 3.5 0 1 0 -7 0z" fill="black"></path><path d="M514.5 210 a3.5 3.5 0 1 0 7 0 a3.5 3.5 0 1 0 -7 0zM570.5 154 a3.5 3.5 0 1 0 7 0 a3.5 3.5 0 1 0 -7 0z" fill="black"></path><path d="M962.5 630 a3.5 3.5 0 1 0 7 0 a3.5 3.5 0 1 0 -7 0zM1074.5 658 a3.5 3.5 0 1 0 7 0 a3.5 3.5 0 1 0 -7 0z" fill="black"></path><path d="M1074.5 798 a3.5 3.5 0 1 0 7 0 a3.5 3.5 0 1 0 -7 0zM962.5 770 a3.5 3.5 0 1 0 7 0 a3.5 3.5 0 1 0 -7 0z" fill="black"></path><path d="M178.5 266 a3.5 3.5 0 1 0 7 0 a3.5 3.5 0 1 0 -7 0zM122.5 266 a3.5 3.5 0 1 0 7 0 a3.5 3.5 0 1 0 -7 0z" fill="black"></path><path d="M1270.5 602 a3.5 3.5 0 1 0 7 0 a3.5 3.5 0 1 0 -7 0zM1326.5 546 a3.5 3.5 0 1 0 7 0 a3.5 3.5 0 1 0 -7 0z" fill="black"></path><path d="M1046.5 490 a3.5 3.5 0 1 0 7 0 a3.5 3.5 0 1 0 -7 0zM1046.5 546 a3.5 3.5 0 1 0 7 0 a3.5 3.5 0 1 0 -7 0z" fill="black"></path><path d="M122.5 322 a3.5 3.5 0 1 0 7 0 a3.5 3.5 0 1 0 -7 0zM178.5 322 a3.5 3.5 0 1 0 7 0 a3.5 3.5 0 1 0 -7 0z" fill="black"></path><path d="M990.5 574 a3.5 3.5 0 1 0 7 0 a3.5 3.5 0 1 0 -7 0zM1046.5 602 a3.5 3.5 0 1 0 7 0 a3.5 3.5 0 1 0 -7 0z" fill="black"></path><path d="M850.5 490 a3.5 3.5 0 1 0 7 0 a3.5 3.5 0 1 0 -7 0zM710.5 462 a3.5 3.5 0 1 0 7 0 a3.5 3.5 0 1 0 -7 0z" fill="black"></path><path d="M1158.5 294 a3.5 3.5 0 1 0 7 0 a3.5 3.5 0 1 0 -7 0zM1130.5 238 a3.5 3.5 0 1 0 7 0 a3.5 3.5 0 1 0 -7 0z" fill="black"></path><path d="M318.5 322 a3.5 3.5 0 1 0 7 0 a3.5 3.5 0 1 0 -7 0zM374.5 350 a3.5 3.5 0 1 0 7 0 a3.5 3.5 0 1 0 -7 0z" fill="black"></path><path d="M1186.5 238 a3.5 3.5 0 1 0 7 0 a3.5 3.5 0 1 0 -7 0zM1186.5 294 a3.5 3.5 0 1 0 7 0 a3.5 3.5 0 1 0 -7 0z" fill="black"></path><path d="M738.5 70 a3.5 3.5 0 1 0 7 0 a3.5 3.5 0 1 0 -7 0zM738.5 126 a3.5 3.5 0 1 0 7 0 a3.5 3.5 0 1 0 -7 0z" fill="black"></path><path d="M570.5 630 a3.5 3.5 0 1 0 7 0 a3.5 3.5 0 1 0 -7 0zM626.5 630 a3.5 3.5 0 1 0 7 0 a3.5 3.5 0 1 0 -7 0z" fill="black"></path><path d="M570.5 658 a3.5 3.5 0 1 0 7 0 a3.5 3.5 0 1 0 -7 0zM626.5 686 a3.5 3.5 0 1 0 7 0 a3.5 3.5 0 1 0 -7 0z" fill="black"></path><path d="M1242.5 630 a3.5 3.5 0 1 0 7 0 a3.5 3.5 0 1 0 -7 0zM1186.5 630 a3.5 3.5 0 1 0 7 0 a3.5 3.5 0 1 0 -7 0z" fill="black"></path><path d="M514.5 742 a3.5 3.5 0 1 0 7 0 a3.5 3.5 0 1 0 -7 0zM598.5 742 a3.5 3.5 0 1 0 7 0 a3.5 3.5 0 1 0 -7 0z" fill="black"></path><path d="M486.5 350 a3.5 3.5 0 1 0 7 0 a3.5 3.5 0 1 0 -7 0zM430.5 378 a3.5 3.5 0 1 0 7 0 a3.5 3.5 0 1 0 -7 0z" fill="black"></path><path d="M38.5 154 a3.5 3.5 0 1 0 7 0 a3.5 3.5 0 1 0 -7 0zM10.5 210 a3.5 3.5 0 1 0 7 0 a3.5 3.5 0 1 0 -7 0z" fill="black"></path><path d="M94.5 350 a3.5 3.5 0 1 0 7 0 a3.5 3.5 0 1 0 -7 0zM150.5 350 a3.5 3.5 0 1 0 7 0 a3.5 3.5 0 1 0 -7 0z" fill="black"></path></mask></defs></svg>